inDegrees=no
num_controls=7
num_derivatives=13
num_iterations=125
num_multipliers=7
num_parameters=0
num_slacks=7
num_states=26
objective=5.668390
objective_accelerations=0.855518
objective_balance=0.096860
objective_effort=0.468667
objective_height=4.205670
objective_ligament=0.041675
solver_duration=2427.350604
status=Solve_Succeeded
success=true
DataType=double
version=3
OpenSimVersion=4.4-2022-07-23-0e9fedc
endheader
time	/jointset/ground_pelvis/pelvis_tilt/value	/jointset/ground_pelvis/pelvis_tx/value	/jointset/ground_pelvis/pelvis_ty/value	/jointset/hip_l/hip_flexion_l/value	/jointset/hip_l/hip_adduction_l/value	/jointset/hip_l/hip_rotation_l/value	/jointset/back/lumbar_extension/value	/jointset/patellofemoral_l/patellar_flexion_l/value	/jointset/knee_l/knee_flexion_l/value	/jointset/knee_l/knee_adduction_l/value	/jointset/knee_l/knee_rotation_l/value	/jointset/ankle_l/ankle_angle_l/value	/jointset/subtalar_l/subtalar_angle_l/value	/jointset/ground_pelvis/pelvis_tilt/speed	/jointset/ground_pelvis/pelvis_tx/speed	/jointset/ground_pelvis/pelvis_ty/speed	/jointset/hip_l/hip_flexion_l/speed	/jointset/hip_l/hip_adduction_l/speed	/jointset/hip_l/hip_rotation_l/speed	/jointset/back/lumbar_extension/speed	/jointset/patellofemoral_l/patellar_flexion_l/speed	/jointset/knee_l/knee_flexion_l/speed	/jointset/knee_l/knee_adduction_l/speed	/jointset/knee_l/knee_rotation_l/speed	/jointset/ankle_l/ankle_angle_l/speed	/jointset/subtalar_l/subtalar_angle_l/speed	/forceset/tau_hip_flexion_l	/forceset/tau_hip_adduction_l	/forceset/tau_hip_rotation_l	/forceset/tau_knee_flexion_l	/forceset/tau_ankle_angle_l	/forceset/tau_subtalar_angle_l	/forceset/tau_lumbar_extension	lambda_cid13_p0	lambda_cid13_p1	lambda_cid13_p2	lambda_cid13_p3	lambda_cid13_p4	lambda_cid13_p5	lambda_cid14_p0	/jointset/ground_pelvis/pelvis_tilt/accel	/jointset/ground_pelvis/pelvis_tx/accel	/jointset/ground_pelvis/pelvis_ty/accel	/jointset/hip_l/hip_flexion_l/accel	/jointset/hip_l/hip_adduction_l/accel	/jointset/hip_l/hip_rotation_l/accel	/jointset/back/lumbar_extension/accel	/jointset/patellofemoral_l/patellar_flexion_l/accel	/jointset/knee_l/knee_flexion_l/accel	/jointset/knee_l/knee_adduction_l/accel	/jointset/knee_l/knee_rotation_l/accel	/jointset/ankle_l/ankle_angle_l/accel	/jointset/subtalar_l/subtalar_angle_l/accel	gamma_cid13_p0	gamma_cid13_p1	gamma_cid13_p2	gamma_cid13_p3	gamma_cid13_p4	gamma_cid13_p5	gamma_cid14_p0
0.5	-0.3461889683049014	-0.03325313863185818	0.7107542052675266	1.358682279409612	-0.2528142191949383	-0.02599769816759165	-0.3539084360901221	1.070415985312095	1.070415985311129	0.002147977654203386	0.1745319812726961	0.2661895852042648	0.06777202196880684	-0.3931221080996602	-0.1098002908375179	-0.7573371276491571	2.566779025147057	0.06429794359258609	0.4399732588570679	-0.5988812790911997	2.775921352979981	2.775921352979771	0.4348266834102192	-5.795439771556798e-05	0.749902979767879	0.2807354892507706	-0.2095000064510109	0.005888366418705818	-0.008508621970261461	-0.2968474568755155	0.08709229935658581	0.02431814092270007	0.2070871567393422	-9.176748585279277	-8.005317555763263	-0.2104457712793875	-7.275975442086188	-600.690198165664	-59.25479712717429	-5.118740807520232	1.129156328967858	0.9393050827618766	-0.6244592801606816	-2.004401406896996	-0.09319506995641151	-0.9346391076645647	2.291787473511163	-1.945402349228202	-1.945402349228184	-0.4029190521427903	-0.1064929296562696	-1.287648507544651	-0.1012561436181856	-1.686765530751572e-08	-5.21551546040591e-06	-1.949473535334392e-06	-7.194024573413697e-07	-3.375434131283695e-07	-3.22746568530583e-06	-2.448063545388851e-07
0.51	-0.3500628700205237	-0.03430417623814457	0.7031515052685173	1.3842461900328	-0.2521776137736674	-0.02164863782596094	-0.3597825504675689	1.09807354802279	1.098073548022737	0.006476529651095074	0.1745307078164053	0.2736222473414828	0.07057143919833452	-0.3815910390652002	-0.1004059618767661	-0.7630186936842169	2.545686899131948	0.06299891132729861	0.4298158565003353	-0.5758977795978334	2.755220573288668	2.755220573288699	0.4308975735521076	-0.0001707103420546034	0.7365056781050188	0.2790679160045218	-0.2164812954691782	0.006541921938385643	-0.008862923422226141	-0.302055314541899	0.08481217712525684	0.02454018537391849	0.2130859077106043	-10.32659416271449	-7.673317515217687	-0.5227821932088794	-6.755146086045153	-607.8652465982588	-59.33325284837539	-3.822911339783777	1.175137563416853	0.9395675653792293	-0.5124596985130657	-2.209074632640754	-0.1514942635110312	-1.060174389873014	2.308203707588978	-2.187946227584021	-2.187946227547812	-0.386534296165998	0.04049691718666635	-1.384524039054077	-0.2106201372804767	-9.677676522552934e-08	-4.719402569694296e-06	-1.03674259232158e-06	-5.836970557579103e-07	-3.947696428673036e-07	-2.923093093811715e-06	-2.823574189580701e-07
0.52	-0.3538194499712676	-0.03526125640229365	0.695497498722489	1.409589688109066	-0.2515546460667791	-0.0174019282260184	-0.3654255153460143	1.125512996846919	1.125512996847699	0.01076606508065437	0.1745291395694396	0.2809171858533882	0.07335195825096875	-0.3696577551214306	-0.09100880241005649	-0.7675984370527911	2.522696515763933	0.06157040071423058	0.4195031105357679	-0.5526513792908728	2.732298575657298	2.73229857565757	0.4270233699531442	-0.0001169125259725865	0.7223582547062511	0.2769558538721535	-0.2234625844873432	0.00719547745778298	-0.009217224874796693	-0.3072631722083259	0.08253205489383991	0.0247622298247307	0.2190846586818959	-11.4665531341447	-7.361133119479587	-0.8113049634344608	-6.332633298753897	-614.9100777141501	-59.47891628673443	-2.718230798473269	1.209599310830266	0.939871183953357	-0.4040947468635724	-2.384052877478038	-0.1190907395129129	-0.9657078292322079	2.344367636230189	-2.389645937239558	-2.389645937239583	-0.3919378003131821	-0.07318217757101	-1.437672854726336	-0.1901539208426582	-6.144986113013746e-08	-4.336423675522216e-06	-1.155796484176398e-06	-5.556215124074047e-07	-3.720444531260976e-07	-2.856596994988541e-06	-2.271899492883638e-07
0.53	-0.3574549544121554	-0.03612443457916847	0.6878032489416771	1.434694101272271	-0.2509463934577077	-0.01325816206001902	-0.3708347892799418	1.152712314727963	1.15271231472844	0.01501683178914659	0.1745280452252409	0.2880671225187624	0.0761093647275298	-0.3573901251108087	-0.08163205457325755	-0.7710621030911333	2.497879208308577	0.06005355012052555	0.4092932854907613	-0.5291790370012187	2.707212006310849	2.70721200631097	0.4230753131195327	-9.938303123772352e-05	0.707524173429201	0.2744398369031733	-0.2300974260425248	0.007628024992212273	-0.009653271501836961	-0.3130396858467845	0.08055879699111024	0.02482185400817884	0.2247813083114831	-12.53559639308241	-6.987878861013201	-1.112928187559994	-5.855173692935788	-622.1397674630271	-59.57196665201815	-1.798722142054062	1.243282569645262	0.9356851671801776	-0.2891621512614634	-2.576621526645047	-0.1716070681170125	-1.04247017719506	2.352323099585712	-2.621071926514867	-2.621071926537359	-0.4050080549618874	0.03992622199955761	-1.52216990036077	-0.2943668339646168	-2.648742476351202e-09	-4.046279078664409e-06	-1.498034726378075e-06	-5.626290299895183e-07	-3.305523060164364e-07	-2.922563003146467e-06	-1.574293221026663e-07
0.54	-0.3609661950082578	-0.03689402356094759	0.6800800305766919	1.459541130991507	-0.2503540343243406	-0.009215264211502962	-0.3760086086761213	1.179650185016907	1.179650185017085	0.01922636424335717	0.1745272673176748	0.2950655395441313	0.07883920278459279	-0.3448049861614618	-0.07229096339091608	-0.7733921538872361	2.471219826970013	0.05839170557415066	0.3993294470433216	-0.5055604717414496	2.680009057237701	2.680009057237672	0.4187765190828203	-5.362517633514632e-05	0.6920543267054828	0.2714421699726212	-0.2367322675976395	0.008060572526520706	-0.01008931812819016	-0.3188161994852381	0.07858553908833638	0.02488147819147725	0.2304779579411493	-13.59308715528544	-6.631543631644185	-1.394841664177601	-5.487361319813113	-629.2224986776845	-59.71144434890999	-1.084389322361774	1.27310109857567	0.9327398530618052	-0.1773716984157226	-2.752467654119532	-0.1480895300471271	-0.916510509719423	2.373612230253336	-2.812921882579309	-2.812921882579245	-0.462085240933463	-0.06753650553647547	-1.564825944060174	-0.2864839131576108	8.212384760374406e-08	-3.858844768196858e-06	-2.087200334920963e-06	-6.084518490289985e-07	-2.682967167118886e-07	-3.135082831794123e-06	-7.152307383544636e-08
0.55	-0.3643502068525898	-0.03757050167001578	0.6723391612944773	1.484112764768841	-0.2497785383791378	-0.005271554950360172	-0.3809456399024932	1.206305753925881	1.206305753926002	0.02339270943259011	0.1745267528816926	0.3019063714219951	0.08153728518711685	-0.3319573207755931	-0.0630211399266435	-0.7745920448070901	2.442819111880563	0.05669005563496256	0.3894417537081355	-0.481843828851531	2.65077242501736	2.650772425017274	0.4144557393470475	-4.679493364659267e-05	0.6760231087468865	0.2680992118379029	-0.2430763403393175	0.008432489014773469	-0.01064065014179532	-0.324818159179471	0.07639320730170351	0.02483739201427297	0.2358637156675656	-14.73685222810217	-6.214200554881402	-1.687461052078267	-4.888313198602078	-636.2912411305911	-59.75449862030882	-0.5645281384601608	1.296612666756491	0.9215046780595401	-0.06289599442068697	-2.92704064956769	-0.1833247233948531	-1.020636535528909	2.370982020774256	-3.02887388956646	-3.02887388957485	-0.4230599253340212	0.03574465229923254	-1.635754049841648	-0.3685869342340424	1.321137953305239e-07	-3.572506657180556e-06	-2.33919806186988e-06	-6.136629134833112e-07	-2.231988661950689e-07	-3.164986507007904e-06	-1.450918156990497e-08
0.5600000000000001	-0.3676045393614454	-0.03815480132745119	0.6645919734619329	1.50839175795265	-0.2492204833328407	-0.001425870180529131	-0.3856454463594821	1.232658988513096	1.232658988513131	0.02751464970727309	0.174526497120671	0.3085841942546571	0.08419986097417222	-0.3188691190631439	-0.05385527306436203	-0.7746558639530282	2.412691708262722	0.05490352579412328	0.3797245487685426	-0.4581155178650809	2.619542192884815	2.619542192884672	0.4098955361938956	-1.890165845751978e-06	0.6594525176649892	0.2643408468789821	-0.2494204130808647	0.008804405503216118	-0.01119198215612664	-0.330820118873725	0.07420087551509977	0.02479330583733559	0.2412494733941017	-15.87219167561685	-5.808697933746243	-1.966356932080009	-4.382849725925585	-643.2544620963807	-59.81784138421608	-0.2278627799838391	1.321208363892084	0.911948532663501	0.04984265636739702	-3.097805359797595	-0.1650655103777469	-0.8824128306011542	2.375945849559781	-3.211641865020031	-3.211641865020018	-0.5099699244093675	-0.05992160051343216	-1.672700568720563	-0.3695652779984983	1.403645722333266e-07	-3.167483985505754e-06	-2.186594330906046e-06	-5.701398724354243e-07	-1.986903022235223e-07	-2.975750798101042e-06	7.833883493623275e-09
